<svg xmlns="http://www.w3.org/2000/svg" width="90" height="90" viewBox="0 0 90 90">
  <g id="Grupo_9782" data-name="Grupo 9782" transform="translate(-981.213 -355.135)">
    <g id="Elipse_113" data-name="Elipse 113" transform="translate(981.213 355.135)" fill="#fff" stroke="#2bc7aa" stroke-width="6">
      <circle cx="45" cy="45" r="45" stroke="none"/>
      <circle cx="45" cy="45" r="42" fill="none"/>
    </g>
    <g id="surface2141" transform="translate(998.213 373.135)">
      <path id="Trazado_12015" data-name="Trazado 12015" d="M34.712,2a20.467,20.467,0,0,0-5.433.679,8.646,8.646,0,0,0-.994.306c-.5.17-1.163.4-1.953.679C24.755,4.216,22.7,4.947,20.578,5.7,16.335,7.21,11.86,8.823,10.493,9.337a6.478,6.478,0,0,0-1.811.917,2.934,2.934,0,0,0-.994,1.495,6.611,6.611,0,0,0,.32,3.363v.034c.009.047.675,3.647,1.136,5.163A4.46,4.46,0,0,0,11.878,23.4C23.157,27.365,30.6,27,32.545,27a1.236,1.236,0,0,0,.213-.034,1.19,1.19,0,0,0,.426-.17l.071-.034a.526.526,0,0,0,.071-.068l1.136-.713.284,2.514c-.218.242-.493.573-1.065,1.189-.715.769-1.523,1.571-1.811,1.834a.526.526,0,0,0-.071.068l-.036.034a3429.312,3429.312,0,0,1-.142.136v.034a.526.526,0,0,0-.071.068.926.926,0,0,0-.036.1,1.114,1.114,0,0,0-.071.2V32.2a.5.5,0,0,0-.036.068V32.3a1.048,1.048,0,0,0,.107.611,1.225,1.225,0,0,0,.036.136l1.1,3.261a1.13,1.13,0,0,0,.852.713s1.332.259,2.131.408c.075.7.16,1.422.213,1.936.036.361.049.671.071.883.009.106.031.183.036.238a1.725,1.725,0,0,1-.213.272c-.235.246-.657.577-1.1.985a5.171,5.171,0,0,0-2.024,3.77,4.075,4.075,0,0,0,.852,2.276,10.971,10.971,0,0,0,1.776,1.936,12.287,12.287,0,0,0,2.1,1.563A4.489,4.489,0,0,0,39.577,52h8.132a3.484,3.484,0,0,0,2.344-1.019,7.078,7.078,0,0,0,1.6-2.276A17.259,17.259,0,0,0,53,41.572c0-6.012-3.516-13.71-3.516-20.992a10.615,10.615,0,0,1,1.1-4.823c.12-.2.235-.4.355-.577l.036-.034c.009-.013.027-.021.036-.034a1.058,1.058,0,0,0,.213-.374,3.175,3.175,0,0,0,.213-.306,4.808,4.808,0,0,0,.426-2.242V6.654a3.324,3.324,0,0,0-1.491-2.785,4.286,4.286,0,0,0-1.811-.611c.027,0-.684-.085-1.669-.2s-2.308-.251-3.764-.408C40.216,2.335,36.838,2,34.712,2ZM9.925,13.209c1.549.276,11.954,2.119,20.028,3.363l1.278,8.254c-2.876.021-8.931-.076-18.572-3.465-.866-.31-.994-.463-1.349-1.63-.337-1.108-1.065-4.993-1.065-4.993a.5.5,0,0,0-.036-.068C10.067,14.067,9.978,13.591,9.925,13.209ZM36.381,30.023l5.043.747L39.506,32.5l-4.688-.815c.191-.2.36-.352.568-.577C35.919,30.533,36.132,30.295,36.381,30.023ZM42.6,32.74a5.744,5.744,0,0,1-.249,1.393,2.736,2.736,0,0,1-2.024,1.936c-.6-.1-1.7-.3-3.2-.577-.1-.017-.115-.017-.213-.034a1.033,1.033,0,0,0-.107-.034c-.062-.013-.08.013-.142,0-.923-.17-1.74-.348-2.06-.408l-.391-1.189,5.433.917a1.167,1.167,0,0,0,.959-.272ZM3,34.609V47.652H6.409V34.609Zm5.682,0V47.652h2.273V34.609Zm4.545,0V47.652h3.409V34.609Zm5.682,0V47.652h2.273V34.609Zm0,0" transform="translate(0)" fill="#2bc7aa"/>
    </g>
  </g>
</svg>
