<svg id="Grupo_10139" data-name="Grupo 10139" xmlns="http://www.w3.org/2000/svg" xmlns:xlink="http://www.w3.org/1999/xlink" width="61.832" height="61.832" viewBox="0 0 61.832 61.832">
  <defs>
    <clipPath id="clip-path">
      <rect id="Rectángulo_2965" data-name="Rectángulo 2965" width="61.832" height="61.832" fill="#2bc7aa"/>
    </clipPath>
  </defs>
  <g id="Grupo_10139-2" data-name="Grupo 10139" clip-path="url(#clip-path)">
    <path id="Trazado_7476" data-name="Trazado 7476" d="M110.237,138.339a1.823,1.823,0,0,1-1.166-.611q-2.232-2.1-4.453-4.216c-.779-.745-1.54-1.51-2.308-2.267a12.048,12.048,0,0,1-1.261-1.266,2.245,2.245,0,0,1,1.119-3.387,2.45,2.45,0,0,1,2.56.744c1.581,1.552,3.2,3.067,4.79,4.606.629.608,1.091.411,1.556-.078q1.615-1.7,3.24-3.385c1.086-1.136,2.168-2.275,3.258-3.407q1.746-1.813,3.5-3.615c.554-.572,1.091-1.162,1.664-1.713a2.246,2.246,0,0,1,2.33-.271,2.378,2.378,0,0,1,1.116,1.142,2.3,2.3,0,0,1,.091,1.625,5.747,5.747,0,0,1-1.5,1.91c-.823.9-1.686,1.769-2.533,2.649q-1.492,1.549-2.985,3.1c-.817.85-1.629,1.705-2.446,2.556q-1.886,1.965-3.773,3.928c-.478.5-.942,1.008-1.435,1.489a1.669,1.669,0,0,1-1.365.47" transform="translate(-82.353 -97.572)" fill="#2bc7aa"/>
    <path id="Trazado_7477" data-name="Trazado 7477" d="M79.119,53.177A25.943,25.943,0,1,1,53.161,27.152,25.922,25.922,0,0,1,79.119,53.177M53.145,76.5a23.37,23.37,0,1,0-23.325-23.52A23.351,23.351,0,0,0,53.145,76.5" transform="translate(-22.283 -22.214)" fill="#2bc7aa"/>
    <path id="Trazado_7478" data-name="Trazado 7478" d="M29.37,196.631a25.775,25.775,0,0,1-5.312-.711,31.15,31.15,0,0,1-14.194-7.511,30.422,30.422,0,0,1-5.381-6.589A30.822,30.822,0,0,1,1.8,176.168a25.967,25.967,0,0,1-1.408-5.594C.205,169.018.1,167.45,0,165.884a.966.966,0,0,1,1.318-1.059.98.98,0,0,1,.644,1.025c.019.626,0,1.257.08,1.876.194,1.544.349,3.1.677,4.617a26.4,26.4,0,0,0,1.817,5.307,29.052,29.052,0,0,0,12.33,13.4,28.356,28.356,0,0,0,4.7,2.11,23.129,23.129,0,0,0,5.2,1.227c1.372.134,2.75.213,4.125.308a.991.991,0,0,1,.96.987c.005.618-.3.93-.95.949-.511.015-1.022,0-1.533,0" transform="translate(0 -134.803)" fill="#2bc7aa"/>
    <path id="Trazado_7479" data-name="Trazado 7479" d="M166.855,0a25.876,25.876,0,0,1,5.618.791c1.4.378,2.806.758,4.165,1.257A27.775,27.775,0,0,1,181.5,4.44a31.168,31.168,0,0,1,6.094,4.834,1.111,1.111,0,0,1,.34,1.37.969.969,0,0,1-1.62.151c-.816-.753-1.607-1.535-2.452-2.255a23.664,23.664,0,0,0-4.383-2.984c-1.071-.559-2.154-1.1-3.269-1.567a24.1,24.1,0,0,0-2.9-.957,25.632,25.632,0,0,0-3.318-.747c-1.428-.191-2.874-.239-4.314-.334a1.208,1.208,0,0,1-.869-.313.883.883,0,0,1-.23-1.016A.878.878,0,0,1,165.416,0c.46.007.92,0,1.44,0" transform="translate(-134.587 0)" fill="#2bc7aa"/>
    <path id="Trazado_7480" data-name="Trazado 7480" d="M322.678,117.241c0,.332,0,.627,0,.92a1.077,1.077,0,0,1-1,1.143c-.526.015-.931-.461-.966-1.118-.043-.8-.053-1.612-.155-2.409-.184-1.428-.365-2.862-.664-4.269a25.872,25.872,0,0,0-.97-3.139c-.3-.855.139-1.637.945-1.562a.961.961,0,0,1,.864.713c.418,1.39.84,2.78,1.194,4.187a24.93,24.93,0,0,1,.5,2.784c.123.923.173,1.857.251,2.748" transform="translate(-260.848 -87.38)" fill="#2bc7aa"/>
    <path id="Trazado_7481" data-name="Trazado 7481" d="M299.1,68.2c.009.581-.214.947-.539,1.064a1,1,0,0,1-1.177-.291c-.744-1.081-1.488-2.163-2.208-3.26a.981.981,0,0,1,.556-1.581.872.872,0,0,1,.979.363c.685.951,1.343,1.922,1.99,2.9a5.941,5.941,0,0,1,.4.805" transform="translate(-241.319 -52.438)" fill="#2bc7aa"/>
  </g>
</svg>
