<svg id="Grupo_10143" data-name="Grupo 10143" xmlns="http://www.w3.org/2000/svg" xmlns:xlink="http://www.w3.org/1999/xlink" width="61.832" height="61.832" viewBox="0 0 61.832 61.832">
  <defs>
    <clipPath id="clip-path">
      <rect id="Rectángulo_2967" data-name="Rectángulo 2967" width="61.832" height="61.832" fill="#fcce5d"/>
    </clipPath>
  </defs>
  <g id="Grupo_10142" data-name="Grupo 10142" clip-path="url(#clip-path)">
    <path id="Trazado_7488" data-name="Trazado 7488" d="M159.514,111.668c-.07.591-.142,1.191-.212,1.791q-.237,2.043-.472,4.086-.277,2.395-.557,4.789c-.047.4-.092.805-.145,1.207a1.622,1.622,0,0,1-1.626,1.4,1.6,1.6,0,0,1-1.613-1.384c-.216-1.785-.418-3.573-.627-5.359q-.358-3.064-.718-6.128a2.771,2.771,0,0,1,1.145-2.713,2.9,2.9,0,0,1,3.1-.322,2.848,2.848,0,0,1,1.728,2.633" transform="translate(-125.601 -88.957)" fill="#fcce5d"/>
    <path id="Trazado_7489" data-name="Trazado 7489" d="M160.119,210.669a2.29,2.29,0,1,1,2.3-2.281,2.288,2.288,0,0,1-2.3,2.281" transform="translate(-129.131 -168.611)" fill="#fcce5d"/>
    <path id="Trazado_7490" data-name="Trazado 7490" d="M79.119,53.177A25.943,25.943,0,1,1,53.161,27.152,25.922,25.922,0,0,1,79.119,53.177M53.145,76.5a23.37,23.37,0,1,0-23.325-23.52A23.351,23.351,0,0,0,53.145,76.5" transform="translate(-22.283 -22.214)" fill="#fcce5d"/>
    <path id="Trazado_7491" data-name="Trazado 7491" d="M29.37,196.631a25.777,25.777,0,0,1-5.312-.711,31.151,31.151,0,0,1-14.194-7.511,30.422,30.422,0,0,1-5.381-6.589A30.822,30.822,0,0,1,1.8,176.168a25.968,25.968,0,0,1-1.408-5.594C.205,169.018.1,167.45,0,165.884a.966.966,0,0,1,1.318-1.059.98.98,0,0,1,.644,1.025c.019.626,0,1.257.08,1.876.194,1.544.349,3.1.677,4.617a26.4,26.4,0,0,0,1.817,5.307,29.052,29.052,0,0,0,12.33,13.4,28.358,28.358,0,0,0,4.7,2.111,23.131,23.131,0,0,0,5.2,1.227c1.372.134,2.75.213,4.125.307a.991.991,0,0,1,.96.987c.005.618-.3.93-.95.949-.511.015-1.022,0-1.533,0" transform="translate(0 -134.803)" fill="#fcce5d"/>
    <path id="Trazado_7492" data-name="Trazado 7492" d="M166.855,0a25.876,25.876,0,0,1,5.618.791c1.4.378,2.806.758,4.165,1.257A27.776,27.776,0,0,1,181.5,4.44a31.169,31.169,0,0,1,6.094,4.834,1.111,1.111,0,0,1,.34,1.37.969.969,0,0,1-1.62.151c-.816-.753-1.607-1.535-2.452-2.255a23.663,23.663,0,0,0-4.383-2.984C178.4,5,177.32,4.452,176.206,3.99a24.1,24.1,0,0,0-2.9-.957,25.632,25.632,0,0,0-3.318-.747c-1.428-.191-2.874-.239-4.314-.334a1.208,1.208,0,0,1-.869-.313.883.883,0,0,1-.23-1.016A.878.878,0,0,1,165.416,0c.46.007.92,0,1.44,0" transform="translate(-134.587 0)" fill="#fcce5d"/>
    <path id="Trazado_7493" data-name="Trazado 7493" d="M322.678,117.241c0,.332,0,.627,0,.92a1.077,1.077,0,0,1-1,1.143c-.526.015-.931-.461-.966-1.118-.043-.8-.053-1.612-.155-2.409-.184-1.429-.365-2.862-.664-4.269a25.877,25.877,0,0,0-.97-3.139c-.3-.855.139-1.637.945-1.562a.961.961,0,0,1,.864.713c.418,1.39.84,2.78,1.194,4.187a24.937,24.937,0,0,1,.5,2.784c.123.923.173,1.857.251,2.748" transform="translate(-260.848 -87.38)" fill="#fcce5d"/>
    <path id="Trazado_7494" data-name="Trazado 7494" d="M299.1,68.2c.009.581-.214.947-.539,1.064a1,1,0,0,1-1.177-.291c-.744-1.081-1.488-2.163-2.208-3.26a.981.981,0,0,1,.556-1.581.872.872,0,0,1,.979.363c.685.951,1.343,1.922,1.99,2.9a5.944,5.944,0,0,1,.4.805" transform="translate(-241.319 -52.438)" fill="#fcce5d"/>
  </g>
</svg>
