<svg id="Grupo_10141" data-name="Grupo 10141" xmlns="http://www.w3.org/2000/svg" xmlns:xlink="http://www.w3.org/1999/xlink" width="61.832" height="61.832" viewBox="0 0 61.832 61.832">
  <defs>
    <clipPath id="clip-path">
      <rect id="Rectángulo_2966" data-name="Rectángulo 2966" width="61.832" height="61.832" fill="none"/>
    </clipPath>
  </defs>
  <g id="Grupo_10140" data-name="Grupo 10140" clip-path="url(#clip-path)">
    <path id="Trazado_7482" data-name="Trazado 7482" d="M79.119,53.177A25.943,25.943,0,1,1,53.161,27.152,25.922,25.922,0,0,1,79.119,53.177M53.145,76.5a23.37,23.37,0,1,0-23.325-23.52A23.351,23.351,0,0,0,53.145,76.5" transform="translate(-22.283 -22.214)" fill="#d13e49"/>
    <path id="Trazado_7483" data-name="Trazado 7483" d="M29.37,196.631a25.777,25.777,0,0,1-5.312-.711,31.151,31.151,0,0,1-14.194-7.511,30.422,30.422,0,0,1-5.381-6.589A30.822,30.822,0,0,1,1.8,176.168a25.968,25.968,0,0,1-1.408-5.594C.205,169.018.1,167.45,0,165.884a.966.966,0,0,1,1.318-1.059.98.98,0,0,1,.644,1.025c.019.626,0,1.257.08,1.876.194,1.544.349,3.1.677,4.617a26.4,26.4,0,0,0,1.817,5.307,29.052,29.052,0,0,0,12.33,13.4,28.358,28.358,0,0,0,4.7,2.111,23.131,23.131,0,0,0,5.2,1.227c1.372.134,2.75.213,4.125.307a.991.991,0,0,1,.96.987c.005.618-.3.93-.95.949-.511.015-1.022,0-1.533,0" transform="translate(0 -134.803)" fill="#d13e49"/>
    <path id="Trazado_7484" data-name="Trazado 7484" d="M166.855,0a25.876,25.876,0,0,1,5.618.791c1.4.378,2.806.758,4.165,1.257A27.776,27.776,0,0,1,181.5,4.44a31.169,31.169,0,0,1,6.094,4.834,1.111,1.111,0,0,1,.34,1.37.969.969,0,0,1-1.62.151c-.816-.753-1.607-1.535-2.452-2.255a23.663,23.663,0,0,0-4.383-2.984C178.4,5,177.32,4.452,176.206,3.99a24.1,24.1,0,0,0-2.9-.957,25.632,25.632,0,0,0-3.318-.747c-1.428-.191-2.874-.239-4.314-.334a1.208,1.208,0,0,1-.869-.313.883.883,0,0,1-.23-1.016A.878.878,0,0,1,165.416,0c.46.007.92,0,1.44,0" transform="translate(-134.587 0)" fill="#d13e49"/>
    <path id="Trazado_7485" data-name="Trazado 7485" d="M322.678,117.241c0,.332,0,.627,0,.92a1.077,1.077,0,0,1-1,1.143c-.526.015-.931-.461-.966-1.118-.043-.8-.053-1.612-.155-2.409-.184-1.429-.365-2.862-.664-4.269a25.877,25.877,0,0,0-.97-3.139c-.3-.855.139-1.637.945-1.562a.961.961,0,0,1,.864.713c.418,1.39.84,2.78,1.194,4.187a24.937,24.937,0,0,1,.5,2.784c.123.923.173,1.857.251,2.748" transform="translate(-260.848 -87.38)" fill="#d13e49"/>
    <path id="Trazado_7486" data-name="Trazado 7486" d="M299.1,68.2c.009.581-.214.947-.539,1.064a1,1,0,0,1-1.177-.291c-.744-1.081-1.488-2.163-2.208-3.26a.981.981,0,0,1,.556-1.581.872.872,0,0,1,.979.363c.685.951,1.343,1.922,1.99,2.9a5.944,5.944,0,0,1,.4.805" transform="translate(-241.319 -52.438)" fill="#d13e49"/>
    <path id="Trazado_7487" data-name="Trazado 7487" d="M131.152,132.8a2.578,2.578,0,0,1-1.785-.818q-2.843-2.852-5.7-5.7c-.332-.332-.364-.334-.7.007q-2.828,2.828-5.652,5.661a2.439,2.439,0,0,1-2.044.783,2.351,2.351,0,0,1-2.052-1.876,2.629,2.629,0,0,1,.893-2.443c1.85-1.8,3.664-3.644,5.494-5.47.354-.353.355-.38-.01-.745-1.891-1.893-3.776-3.792-5.676-5.676a2.387,2.387,0,0,1-.656-2.429,2.2,2.2,0,0,1,1.479-1.563,2.3,2.3,0,0,1,2.542.629q2.871,2.862,5.729,5.735c.27.27.36.27.624,0,1.952-1.957,3.894-3.924,5.864-5.862a2.348,2.348,0,0,1,3.727.648,2.5,2.5,0,0,1-.431,2.766c-1.955,1.936-3.893,3.89-5.839,5.836-.236.236-.245.3-.015.532q1.705,1.713,3.414,3.423c.835.84,1.661,1.688,2.5,2.527a2.357,2.357,0,0,1-.841,3.787c-.279.1-.574.16-.862.238" transform="translate(-92.588 -91.942)" fill="#d13e49"/>
  </g>
</svg>
